<svg width="24" height="24" viewBox="0 0 24 24" fill="none" xmlns="http://www.w3.org/2000/svg">
<path d="M6.9843 15.657L6.98444 15.6568L7.66693 14.5222C7.66694 14.5221 7.66696 14.5221 7.66697 14.5221C7.70344 14.4602 7.75545 14.4089 7.81786 14.3733C7.88029 14.3377 7.95094 14.3191 8.02281 14.3192M6.9843 15.657L8.02281 14.3192M6.9843 15.657C6.93688 15.7381 6.90592 15.8278 6.89323 15.9208C6.88053 16.0139 6.88634 16.1085 6.91032 16.1994C6.9343 16.2902 6.97597 16.3754 7.03296 16.45C7.08989 16.5247 7.161 16.5873 7.24218 16.6344C7.35137 16.7005 7.47682 16.735 7.60448 16.7339C7.72967 16.7348 7.85286 16.7026 7.9617 16.6408C8.07054 16.5789 8.16118 16.4895 8.22453 16.3815M6.9843 15.657L8.22453 16.3815M8.02281 14.3192H8.12366C8.62765 14.3192 8.98292 14.6224 9.08714 14.9203L9.09059 14.9302L9.08524 14.9391L8.22461 16.3814M8.02281 14.3192L8.22461 16.3814M8.22461 16.3814C8.22458 16.3814 8.22455 16.3815 8.22453 16.3815M8.22461 16.3814L8.22453 16.3815M10.3722 12.7469H12.908C13.0729 12.7469 13.2578 12.7911 13.4222 12.8705C13.5865 12.9499 13.7324 13.0654 13.817 13.2097L13.8178 13.2111L13.8178 13.2111L13.8317 13.2394C13.976 13.4847 14.0603 13.6573 14.0603 13.9085V13.9091L14.0603 13.9091C14.0578 13.9916 14.0394 14.0728 14.0061 14.1483L13.993 14.1781L13.9751 14.1603L9.51431 14.1652H9.51429H6.5434H6.5433V14.1429L10.3722 12.7469ZM10.3722 12.7469L12.1005 9.79969L12.9041 8.4296L12.9041 8.4296L13.7309 7.02112L13.7309 7.02105C13.9238 6.68939 13.8405 6.25252 13.512 6.04369C13.512 6.04369 13.512 6.0437 13.512 6.04371L10.3722 12.7469ZM17.4566 14.1652C17.5538 14.1654 17.65 14.1461 17.7395 14.1082C17.829 14.0703 17.9099 14.0148 17.9774 13.9448C18.0449 13.8749 18.0975 13.7921 18.1321 13.7013C18.1668 13.6105 18.1827 13.5137 18.179 13.4166L18.179 13.4164C18.161 13.0335 17.8284 12.7366 17.4424 12.7366H15.4502L13.125 8.80382L13.1135 8.7844L13.0942 8.79609L13.1058 8.81518L13.0942 8.7961L13.0942 8.79612L13.0941 8.79615L13.094 8.79626L13.0935 8.79658L13.0918 8.79767L13.0857 8.80177C13.0806 8.80541 13.0732 8.81089 13.0637 8.81857C13.0448 8.83392 13.0178 8.85803 12.9844 8.89359C12.9176 8.9647 12.8251 9.08157 12.7208 9.26578L12.7206 9.26606C12.5758 9.53037 12.5023 9.82787 12.5074 10.1292C12.5126 10.4306 12.5962 10.7254 12.75 10.9846C12.75 10.9846 12.75 10.9846 12.75 10.9846L13.7981 12.7765L13.7982 12.7765L14.6107 14.1604L14.6299 14.1491L14.6107 14.1604L15.9183 16.3863L15.9184 16.3865C15.9827 16.4935 16.0735 16.5821 16.1822 16.6436C16.2908 16.7051 16.4135 16.7374 16.5384 16.7375H16.5384C16.6698 16.7375 16.7986 16.7013 16.9107 16.6329L16.9109 16.6328C17.0727 16.5317 17.1882 16.3711 17.2327 16.1857C17.2773 16.0003 17.2472 15.8048 17.1491 15.6413C17.1491 15.6413 17.1491 15.6412 17.149 15.6412L16.2812 14.1652H17.4554H17.4566ZM17.4566 14.1652L17.4567 14.1429M17.4566 14.1652H17.4567V14.1429M17.4567 14.1429C17.5509 14.1431 17.6441 14.1243 17.7308 14.0876C17.8175 14.0509 17.8959 13.9971 17.9613 13.9293C18.0267 13.8616 18.0777 13.7813 18.1113 13.6933C18.1449 13.6054 18.1603 13.5115 18.1567 13.4174L17.4567 14.1429ZM12.0815 7.00824L11.6563 6.28203L11.6563 6.28197C11.6072 6.19864 11.5417 6.12609 11.4639 6.0687C11.386 6.0113 11.2974 5.97025 11.2032 5.94799C11.1091 5.92574 11.0114 5.92276 10.9161 5.93921C10.8209 5.95566 10.7299 5.9912 10.6487 6.04369C10.6487 6.04371 10.6486 6.04374 10.6486 6.04376L12.0815 7.00824ZM11.246 8.41696L8.70598 12.7406H6.56518C6.18172 12.7406 5.84342 13.0328 5.82859 13.421C5.82859 13.4209 5.82859 13.4209 5.82859 13.4209L11.246 8.41696ZM2.02232 12C2.02232 6.48822 6.48822 2.02232 12 2.02232C17.5118 2.02232 21.9777 6.48822 21.9777 12C21.9777 17.5118 17.5118 21.9777 12 21.9777C6.48822 21.9777 2.02232 17.5118 2.02232 12Z" fill="#FAFAFA" stroke="#FAFAFA" stroke-width="0.0446429"/>
</svg>
