<svg width="122" height="100" viewBox="0 0 122 100" fill="none" xmlns="http://www.w3.org/2000/svg">
<g clip-path="url(#clip0_6499_25497)">
<path d="M107.226 3.64818C109.543 25.1874 97.7875 39.3433 82.6331 51.6335C67.0578 64.3192 48.9986 69.95 28.0345 68.9216C36.8479 61.432 47.6136 56.8632 53.551 44.821C50.7869 45.7724 49.1806 45.8796 48.3388 46.6707C39.7111 55.2662 29.3952 61.5462 18.5777 66.7734C17.2354 67.4861 15.7352 68.2252 14.604 69.2273C11.4732 71.8645 11.1342 74.6828 13.9294 77.787C14.536 78.4973 15.4585 79.1546 16.223 79.8384C24.1566 85.4909 31.9323 91.17 36.9727 99.9072C39.3054 90.5819 34.242 84.6099 27.6252 79.0611C36.6301 77.5492 44.9511 76.8019 53.0334 74.6328C76.6484 68.2316 95.1989 54.884 106.418 32.6966C109.36 27.0048 110.3 20.0249 111.319 13.5189C112.157 8.83029 110.997 7.72561 107.226 3.64818Z" fill="#0C0C0C"/>
<path d="M104.109 0.53047C106.425 22.0697 94.6704 36.2256 79.5159 48.5158C63.9406 61.2015 45.8814 66.8323 24.9174 65.8039C33.7307 58.3143 44.4964 53.7455 50.4338 41.7033C47.6697 42.6547 46.0634 42.7619 45.2216 43.553C36.5939 52.1485 26.278 58.4285 15.4605 63.6557C14.1182 64.3684 12.618 65.1075 11.4868 66.1096C8.35603 68.7468 8.01703 71.5651 10.8123 74.6693C11.4188 75.3796 12.3413 76.0369 13.1059 76.7207C21.0395 82.3732 28.8151 88.0523 33.8555 96.7895C36.1882 87.4642 31.1248 81.4922 24.5081 75.9434C33.5129 74.4315 41.8339 73.6842 49.9162 71.5151C73.5312 65.1139 92.0817 51.7663 103.3 29.5789C106.243 23.8871 107.183 16.9072 108.202 10.4012C109.039 5.71259 107.879 4.6079 104.109 0.53047Z" fill="url(#paint0_linear_6499_25497)"/>
</g>
<defs>
<linearGradient id="paint0_linear_6499_25497" x1="6.9214" y1="59.0794" x2="114.13" y2="41.08" gradientUnits="userSpaceOnUse">
<stop stop-color="#E0AA3D"/>
<stop offset="0.46875" stop-color="#F7EF8A"/>
<stop offset="1" stop-color="#E0AA3E"/>
</linearGradient>
<clipPath id="clip0_6499_25497">
<rect width="83.1383" height="108.769" fill="white" transform="matrix(0.165574 0.986197 0.986198 -0.165573 0 18.0092)"/>
</clipPath>
</defs>
</svg>
