<svg width="101" height="54" viewBox="0 0 101 54" fill="none" xmlns="http://www.w3.org/2000/svg">
<path d="M38.846 36.2939C48.9343 48.7957 67.7626 50.6211 89.1386 41.3709C85.4654 39.4068 80.3319 42.3707 77.881 37.9345C78.1866 37.3164 78.231 36.6284 78.3966 36.5328C84.7125 35.4255 91.0633 34.1876 97.4398 33.3766C99.6089 33.1179 101.419 34.7226 100.789 37.0735C99.4938 41.9059 98.2946 46.9038 94.7002 51.9598C93.5972 49.2846 92.8417 47.4024 92.3381 46.1476C85.8728 48.3347 79.6944 51.0187 73.3085 52.3871C58.0972 55.8702 44.4094 52.6226 33.5537 40.895C31.814 39.029 30.1767 38.8703 27.9121 38.9634C18.2261 39.5876 10.0168 36.2681 3.78097 28.718C1.56322 26.024 -0.810761 22.8683 1.37267 17.8541C3.72539 24.2237 7.56163 28.1912 12.697 30.9671C17.7369 33.5773 23.0566 35.1427 28.7195 33.8604C29.1351 28.6525 28.9583 23.5658 30.2181 18.8641C31.3473 14.1273 33.4608 9.37435 36.0872 5.31876C38.7837 1.00197 43.6536 0.067145 47.5973 1.54381C51.5411 3.02047 53.8357 6.99486 53.4551 12.0722C52.827 20.1628 49.0388 26.9867 43.2053 32.5626C41.8361 34.0155 40.2758 35.1372 38.846 36.2939ZM36.0733 31.4915C43.1079 26.6573 46.5555 20.582 47.8272 13.2238C48.1959 10.803 48.1728 8.27712 45.3345 7.37662C42.888 6.58111 41.1877 8.22521 40.1053 10.1749C36.3615 16.3108 34.9686 23.0766 36.0733 31.4915Z" fill="url(#paint0_linear_6474_142081)"/>
<defs>
<linearGradient id="paint0_linear_6474_142081" x1="57.2773" y1="4.08789" x2="44.8457" y2="50.4833" gradientUnits="userSpaceOnUse">
<stop stop-color="#E0AA3D"/>
<stop offset="0.46875" stop-color="#F7EF8A"/>
<stop offset="1" stop-color="#E0AA3E"/>
</linearGradient>
</defs>
</svg>
