<svg width="101" height="54" viewBox="0 0 101 54" fill="none" xmlns="http://www.w3.org/2000/svg">
<path d="M38.845 36.2939C48.9333 48.7957 67.7616 50.6211 89.1376 41.3709C85.4645 39.4068 80.3309 42.3707 77.88 37.9345C78.1856 37.3164 78.23 36.6284 78.3956 36.5328C84.7115 35.4255 91.0624 34.1876 97.4388 33.3766C99.6079 33.1179 101.418 34.7226 100.788 37.0735C99.4929 41.9059 98.2936 46.9038 94.6992 51.9598C93.5962 49.2846 92.8407 47.4024 92.3371 46.1476C85.8718 48.3347 79.6934 51.0187 73.3076 52.3871C58.0962 55.8702 44.4084 52.6226 33.5527 40.895C31.813 39.029 30.1757 38.8703 27.9111 38.9634C18.2251 39.5876 10.0158 36.2681 3.78 28.718C1.56224 26.024 -0.811737 22.8683 1.3717 17.8541C3.72441 24.2237 7.56065 28.1912 12.6961 30.9671C17.7359 33.5773 23.0556 35.1427 28.7185 33.8604C29.1341 28.6525 28.9573 23.5658 30.2171 18.8641C31.3463 14.1273 33.4598 9.37435 36.0863 5.31876C38.7827 1.00197 43.6526 0.067145 47.5963 1.54381C51.5401 3.02047 53.8347 6.99486 53.4541 12.0722C52.826 20.1628 49.0378 26.9867 43.2043 32.5626C41.8352 34.0155 40.2748 35.1372 38.845 36.2939ZM36.0724 31.4915C43.1069 26.6573 46.5545 20.582 47.8262 13.2238C48.1949 10.803 48.1718 8.27712 45.3335 7.37662C42.8871 6.58111 41.1867 8.22521 40.1043 10.1749C36.3605 16.3108 34.9676 23.0766 36.0724 31.4915Z" fill="url(#paint0_linear_6499_25490)"/>
<defs>
<linearGradient id="paint0_linear_6499_25490" x1="12.1269" y1="34.4343" x2="47.1938" y2="-6.32684" gradientUnits="userSpaceOnUse">
<stop stop-color="#7D2EBD"/>
<stop offset="1" stop-color="#C054EE"/>
</linearGradient>
</defs>
</svg>
