<svg width="32" height="32" viewBox="0 0 32 32" fill="none" xmlns="http://www.w3.org/2000/svg">
<path d="M20.001 25.3333C20.001 27.5425 18.2101 29.3333 16.001 29.3333C13.7918 29.3333 12.001 27.5425 12.001 25.3333M18.3963 8.31807C18.977 7.71819 19.3343 6.90082 19.3343 6C19.3343 4.15905 17.8419 2.66666 16.001 2.66666C14.16 2.66666 12.6676 4.15905 12.6676 6C12.6676 6.90082 13.025 7.71819 13.6056 8.31807M3.39674 11.0973C3.37761 9.16215 4.42092 7.35508 6.10636 6.40408M28.6052 11.0973C28.6243 9.16215 27.581 7.35508 25.8956 6.40408M24.001 14.9333C24.001 13.0945 23.1581 11.331 21.6578 10.0307C20.1575 8.73047 18.1227 8 16.001 8C13.8793 8 11.8444 8.73047 10.3441 10.0307C8.84384 11.331 8.00098 13.0945 8.00098 14.9333C8.00098 17.9757 7.24649 20.2008 6.30507 21.7929C5.2321 23.6075 4.69562 24.5148 4.7168 24.7315C4.74104 24.9795 4.78567 25.0577 4.98677 25.2048C5.16254 25.3333 6.04566 25.3333 7.8119 25.3333H24.1901C25.9563 25.3333 26.8394 25.3333 27.0152 25.2048C27.2163 25.0577 27.2609 24.9795 27.2852 24.7315C27.3063 24.5148 26.7699 23.6075 25.6969 21.7929C24.7555 20.2008 24.001 17.9757 24.001 14.9333Z" stroke="#F04438" stroke-width="2.67" stroke-linecap="round" stroke-linejoin="round"/>
</svg>
