<svg width="28" height="30" viewBox="0 0 28 30" fill="none" xmlns="http://www.w3.org/2000/svg">
<path d="M26 12.3334H2M26 15.6667V10.7334C26 8.49314 26 7.37304 25.564 6.51739C25.1805 5.76474 24.5686 5.15282 23.816 4.76933C22.9603 4.33335 21.8402 4.33335 19.6 4.33335H8.4C6.15979 4.33335 5.03969 4.33335 4.18404 4.76933C3.43139 5.15282 2.81947 5.76474 2.43597 6.51739C2 7.37304 2 8.49314 2 10.7334V21.9334C2 24.1736 2 25.2937 2.43597 26.1493C2.81947 26.902 3.43139 27.5139 4.18404 27.8974C5.03969 28.3334 6.15979 28.3334 8.4 28.3334H14M19.3333 1.66669V7.00002M8.66667 1.66669V7.00002M17.3333 24.3334L20 27L26 21" stroke="url(#paint0_linear_7017_368)" stroke-width="2.66667" stroke-linecap="round" stroke-linejoin="round"/>
<defs>
<linearGradient id="paint0_linear_7017_368" x1="5.51472" y1="24.4281" x2="21.9638" y2="9.82257" gradientUnits="userSpaceOnUse">
<stop stop-color="#7D2EBD"/>
<stop offset="1" stop-color="#C054EE"/>
</linearGradient>
</defs>
</svg>
