<svg width="176" height="48" viewBox="0 0 176 48" fill="none" xmlns="http://www.w3.org/2000/svg">
<path d="M32.9934 9.97693V0H22.5514V9.97693L13.8867 14.9654L19.1077 24.0001L27.7724 19.0116L36.4371 24.0001L41.6581 14.9654L32.9934 9.97693Z" fill="url(#paint0_linear_202_6257)"/>
<path d="M46.8782 33.9769V24H36.4362V33.9769L27.7715 38.9654L32.9925 48.0001L41.6572 43.0116L50.3219 48.0001L55.5429 38.9654L46.8782 33.9769Z" fill="url(#paint1_linear_202_6257)"/>
<path d="M19.1067 24H8.66468V33.9769L0 38.9654L5.22102 48.0001L13.8857 43.0116L22.5504 48.0001L27.7714 38.9654L19.1067 33.9769V24Z" fill="url(#paint2_linear_202_6257)"/>
<path d="M91.215 13.4832H81.9105L76.1222 32.2883L70.3339 13.4832H61.0293L71.7945 43.6474H80.3958L91.215 13.4832Z" fill="#FAFAFA"/>
<path d="M95.3694 10.2766H104.349V3.42847H95.3694V10.2766ZM95.3694 43.6474H104.349V13.4832H95.3694V43.6474Z" fill="#FAFAFA"/>
<path d="M109.442 28.5381C109.442 35.9297 114.689 44.5713 125.616 44.5713C136.544 44.5713 141.791 35.9297 141.791 28.5381C141.791 21.1465 136.544 12.5049 125.616 12.5049C114.689 12.5049 109.442 21.1465 109.442 28.4838V28.5381ZM118.422 28.5381C118.422 24.1358 121.721 20.9291 125.616 20.9291C129.511 20.9291 132.811 24.1358 132.811 28.5381C132.811 32.9405 129.511 36.1471 125.616 36.1471C121.721 36.1471 118.422 32.9405 118.422 28.5925V28.5381Z" fill="#FAFAFA"/>
<defs>
<linearGradient id="paint0_linear_202_6257" x1="17.9537" y1="20.4853" x2="32.7328" y2="3.6133" gradientUnits="userSpaceOnUse">
<stop stop-color="#7D2EBD"/>
<stop offset="1" stop-color="#C054EE"/>
</linearGradient>
<linearGradient id="paint1_linear_202_6257" x1="31.8385" y1="44.4853" x2="46.6176" y2="27.6133" gradientUnits="userSpaceOnUse">
<stop stop-color="#7D2EBD"/>
<stop offset="1" stop-color="#C054EE"/>
</linearGradient>
<linearGradient id="paint2_linear_202_6257" x1="4.06703" y1="44.4853" x2="18.8461" y2="27.6133" gradientUnits="userSpaceOnUse">
<stop stop-color="#7D2EBD"/>
<stop offset="1" stop-color="#C054EE"/>
</linearGradient>
</defs>
</svg>
