<svg width="24" height="24" viewBox="0 0 24 24" fill="none" xmlns="http://www.w3.org/2000/svg">
<g clip-path="url(#clip0_202_4825)">
<path d="M23.63 4.6661C23.168 3.8721 22.318 3.33276 21.3333 3.33276H12V4.6661H23.63ZM0 16.6661H24V17.9994H0V16.6661ZM12 11.3328H24V12.6661H12V11.3328ZM12 8.6661H24V9.99943H12V8.6661ZM0 13.9994H24V15.3328H0V13.9994ZM2.66667 20.6661H21.3333C22.318 20.6661 23.168 20.1268 23.63 19.3328H0.37C0.832 20.1268 1.682 20.6661 2.66667 20.6661ZM12 5.99943H24V7.33276H12V5.99943Z" fill="#B22334"/>
<path d="M0.0453333 18.4525C0.0566667 18.5145 0.0693333 18.5765 0.0846667 18.6372C0.102 18.7045 0.123333 18.7692 0.146 18.8345C0.205333 19.0072 0.277333 19.1738 0.368 19.3298L0.37 19.3332H23.63L23.6313 19.3305C23.7208 19.1733 23.7949 19.0079 23.8527 18.8365C23.8966 18.7114 23.9305 18.583 23.954 18.4525C23.9813 18.3058 24 18.1552 24 17.9998H0C0 18.1552 0.0186667 18.3052 0.0453333 18.4525ZM0 15.3332H24V16.6665H0V15.3332ZM0 12.6665V13.9998H24V12.6665H12H0ZM12 9.99984H24V11.3332H12V9.99984ZM12 7.33317H24V8.6665H12V7.33317ZM0.0853333 5.3625C0.102 5.2945 0.125333 5.22984 0.146667 5.1645C0.123515 5.22963 0.103054 5.29569 0.0853333 5.3625ZM12 5.99984H24C24 5.8445 23.9813 5.69384 23.954 5.5465C23.9307 5.41591 23.8965 5.28747 23.852 5.1625C23.7942 4.99038 23.7199 4.82427 23.63 4.6665H12V5.99984Z" fill="#EEEEEE"/>
<path d="M12 3.33276H2.66667C1.95942 3.33276 1.28115 3.61372 0.781049 4.11381C0.280952 4.61391 0 5.29219 0 5.99943L0 12.6661H12V3.33276Z" fill="#3C3B6E"/>
<path d="M1.33594 5.1505L1.74794 5.44984L1.5906 5.93317L2.00194 5.6345L2.41394 5.93317L2.2566 5.44984L2.6686 5.1505H2.15927L2.00194 4.6665L1.84527 5.1505H1.33594ZM2.66927 6.48384L3.08127 6.78317L2.92394 7.2665L3.33527 6.96784L3.74727 7.2665L3.58994 6.78317L4.00194 6.48384H3.4926L3.33527 5.99984L3.1786 6.48384H2.66927ZM5.33594 6.48384L5.74794 6.78317L5.5906 7.2665L6.00194 6.96784L6.41394 7.2665L6.2566 6.78317L6.6686 6.48384H6.15927L6.00194 5.99984L5.84527 6.48384H5.33594ZM8.0026 6.48384L8.4146 6.78317L8.25727 7.2665L8.6686 6.96784L9.0806 7.2665L8.92327 6.78317L9.33527 6.48384H8.82594L8.6686 5.99984L8.51194 6.48384H8.0026ZM2.66927 9.1505L3.08127 9.44984L2.92394 9.93317L3.33527 9.6345L3.74727 9.93317L3.58994 9.44984L4.00194 9.1505H3.4926L3.33527 8.6665L3.1786 9.1505H2.66927ZM5.33594 9.1505L5.74794 9.44984L5.5906 9.93317L6.00194 9.6345L6.41394 9.93317L6.2566 9.44984L6.6686 9.1505H6.15927L6.00194 8.6665L5.84527 9.1505H5.33594ZM8.0026 9.1505L8.4146 9.44984L8.25727 9.93317L8.6686 9.6345L9.0806 9.93317L8.92327 9.44984L9.33527 9.1505H8.82594L8.6686 8.6665L8.51194 9.1505H8.0026ZM4.0026 5.1505L4.4146 5.44984L4.25727 5.93317L4.6686 5.6345L5.0806 5.93317L4.92327 5.44984L5.33527 5.1505H4.82594L4.6686 4.6665L4.51194 5.1505H4.0026ZM6.66927 5.1505L7.08127 5.44984L6.92394 5.93317L7.33527 5.6345L7.74727 5.93317L7.58994 5.44984L8.00194 5.1505H7.4926L7.33527 4.6665L7.1786 5.1505H6.66927ZM9.33594 5.1505L9.74794 5.44984L9.5906 5.93317L10.0019 5.6345L10.4139 5.93317L10.2566 5.44984L10.6686 5.1505H10.1593L10.0019 4.6665L9.84527 5.1505H9.33594ZM1.33594 7.81717L1.74794 8.1165L1.5906 8.59984L2.00194 8.30117L2.41394 8.59984L2.2566 8.1165L2.6686 7.81717H2.15927L2.00194 7.33317L1.84527 7.81717H1.33594ZM4.25727 8.59984L4.6686 8.30117L5.0806 8.59984L4.92327 8.1165L5.33527 7.81717H4.82594L4.6686 7.33317L4.51194 7.81717H4.0026L4.4146 8.1165L4.25727 8.59984ZM6.66927 7.81717L7.08127 8.1165L6.92394 8.59984L7.33527 8.30117L7.74727 8.59984L7.58994 8.1165L8.00194 7.81717H7.4926L7.33527 7.33317L7.1786 7.81717H6.66927ZM9.33594 7.81717L9.74794 8.1165L9.5906 8.59984L10.0019 8.30117L10.4139 8.59984L10.2566 8.1165L10.6686 7.81717H10.1593L10.0019 7.33317L9.84527 7.81717H9.33594ZM1.33594 10.4838L1.74794 10.7832L1.5906 11.2665L2.00194 10.9678L2.41394 11.2665L2.2566 10.7832L2.6686 10.4838H2.15927L2.00194 9.99984L1.84527 10.4838H1.33594ZM4.25727 11.2665L4.6686 10.9678L5.0806 11.2665L4.92327 10.7832L5.33527 10.4838H4.82594L4.6686 9.99984L4.51194 10.4838H4.0026L4.4146 10.7832L4.25727 11.2665ZM6.66927 10.4838L7.08127 10.7832L6.92394 11.2665L7.33527 10.9678L7.74727 11.2665L7.58994 10.7832L8.00194 10.4838H7.4926L7.33527 9.99984L7.1786 10.4838H6.66927ZM9.33594 10.4838L9.74794 10.7832L9.5906 11.2665L10.0019 10.9678L10.4139 11.2665L10.2566 10.7832L10.6686 10.4838H10.1593L10.0019 9.99984L9.84527 10.4838H9.33594Z" fill="white"/>
</g>
<defs>
<clipPath id="clip0_202_4825">
<rect width="24" height="24" fill="white"/>
</clipPath>
</defs>
</svg>
