<svg width="143" height="70" viewBox="0 0 143 70" fill="none" xmlns="http://www.w3.org/2000/svg">
<path d="M32.9925 9.97693V0H22.5504V9.97693L13.8857 14.9654L19.1068 24.0001L27.7714 19.0116L36.4361 24.0001L41.6571 14.9654L32.9925 9.97693Z" fill="url(#paint0_linear_7405_10492)"/>
<path d="M46.8781 33.9769V24H36.436V33.9769L27.7714 38.9654L32.9924 48.0001L41.6571 43.0116L50.3217 48.0001L55.5428 38.9654L46.8781 33.9769Z" fill="url(#paint1_linear_7405_10492)"/>
<path d="M19.1067 24H8.66468V33.9769L0 38.9654L5.22102 48.0001L13.8857 43.0116L22.5504 48.0001L27.7714 38.9654L19.1067 33.9769V24Z" fill="url(#paint2_linear_7405_10492)"/>
<path d="M91.2143 13.4833H81.9097L76.1214 32.2884L70.3331 13.4833H61.0286L71.7937 43.6475H80.395L91.2143 13.4833Z" fill="#FAFAFA"/>
<path d="M95.3687 10.2767H104.349V3.42857H95.3687V10.2767ZM95.3687 43.6475H104.349V13.4833H95.3687V43.6475Z" fill="#FAFAFA"/>
<path d="M109.441 28.5382C109.441 35.9298 114.688 44.5714 125.616 44.5714C136.543 44.5714 141.79 35.9298 141.79 28.5382C141.79 21.1466 136.543 12.505 125.616 12.505C114.688 12.505 109.441 21.1466 109.441 28.4839V28.5382ZM118.421 28.5382C118.421 24.1359 121.721 20.9292 125.616 20.9292C129.511 20.9292 132.81 24.1359 132.81 28.5382C132.81 32.9406 129.511 36.1472 125.616 36.1472C121.721 36.1472 118.421 32.9406 118.421 28.5926V28.5382Z" fill="#FAFAFA"/>
<path d="M1.92699 58.7091L4.08473 65.2349H4.16974L6.32344 58.7091H7.97514L5.05227 67H3.19815L0.279332 58.7091H1.92699ZM11.0873 67.1214C10.4638 67.1214 9.92541 66.9919 9.472 66.7328C9.02129 66.471 8.67448 66.1013 8.43159 65.6236C8.18869 65.1432 8.06724 64.5778 8.06724 63.9273C8.06724 63.2877 8.18869 62.7263 8.43159 62.2433C8.67718 61.7575 9.01994 61.3796 9.45985 61.1097C9.89977 60.8371 10.4166 60.7009 11.0104 60.7009C11.3936 60.7009 11.7552 60.7629 12.0953 60.8871C12.4381 61.0085 12.7403 61.1974 13.0021 61.4538C13.2666 61.7102 13.4744 62.0368 13.6256 62.4335C13.7767 62.8276 13.8523 63.2972 13.8523 63.8423V64.2917H8.75545V63.3039H12.4475C12.4448 63.0232 12.3841 62.7736 12.2653 62.555C12.1466 62.3337 11.9806 62.1596 11.7674 62.0327C11.5569 61.9059 11.3113 61.8425 11.0306 61.8425C10.731 61.8425 10.4679 61.9153 10.2412 62.0611C10.0145 62.2041 9.8377 62.393 9.71085 62.6278C9.5867 62.8599 9.52328 63.115 9.52058 63.393V64.2553C9.52058 64.6169 9.5867 64.9273 9.71895 65.1864C9.85119 65.4428 10.0361 65.6398 10.2736 65.7774C10.5111 65.9124 10.789 65.9798 11.1075 65.9798C11.3207 65.9798 11.5137 65.9501 11.6864 65.8908C11.8591 65.8287 12.0089 65.7383 12.1358 65.6195C12.2626 65.5008 12.3584 65.3537 12.4232 65.1783L13.7915 65.3321C13.7052 65.6937 13.5405 66.0095 13.2976 66.2794C13.0574 66.5466 12.7498 66.7544 12.3746 66.9028C11.9995 67.0486 11.5704 67.1214 11.0873 67.1214ZM16.5575 58.7091V67H15.092V58.7091H16.5575ZM20.7769 67.1214C20.1696 67.1214 19.6433 66.9879 19.198 66.7207C18.7527 66.4535 18.4073 66.0797 18.1617 65.5993C17.9188 65.1189 17.7973 64.5575 17.7973 63.9152C17.7973 63.2729 17.9188 62.7102 18.1617 62.2271C18.4073 61.744 18.7527 61.3688 19.198 61.1016C19.6433 60.8344 20.1696 60.7009 20.7769 60.7009C21.3841 60.7009 21.9104 60.8344 22.3557 61.1016C22.801 61.3688 23.1451 61.744 23.388 62.2271C23.6336 62.7102 23.7564 63.2729 23.7564 63.9152C23.7564 64.5575 23.6336 65.1189 23.388 65.5993C23.1451 66.0797 22.801 66.4535 22.3557 66.7207C21.9104 66.9879 21.3841 67.1214 20.7769 67.1214ZM20.785 65.9474C21.1142 65.9474 21.3895 65.857 21.6108 65.6762C21.8321 65.4927 21.9968 65.2471 22.1047 64.9394C22.2154 64.6317 22.2707 64.289 22.2707 63.9112C22.2707 63.5306 22.2154 63.1865 22.1047 62.8788C21.9968 62.5685 21.8321 62.3215 21.6108 62.138C21.3895 61.9545 21.1142 61.8627 20.785 61.8627C20.4476 61.8627 20.1669 61.9545 19.9429 62.138C19.7216 62.3215 19.5556 62.5685 19.445 62.8788C19.337 63.1865 19.283 63.5306 19.283 63.9112C19.283 64.289 19.337 64.6317 19.445 64.9394C19.5556 65.2471 19.7216 65.4927 19.9429 65.6762C20.1669 65.857 20.4476 65.9474 20.785 65.9474ZM27.7126 67.1214C27.0919 67.1214 26.5588 66.9852 26.1135 66.7126C25.6709 66.44 25.3295 66.0635 25.0893 65.5831C24.8518 65.1 24.7331 64.544 24.7331 63.9152C24.7331 63.2837 24.8545 62.7263 25.0974 62.2433C25.3403 61.7575 25.6831 61.3796 26.1257 61.1097C26.571 60.8371 27.0973 60.7009 27.7045 60.7009C28.2092 60.7009 28.6559 60.794 29.0445 60.9802C29.4358 61.1637 29.7475 61.4241 29.9797 61.7615C30.2118 62.0962 30.344 62.4875 30.3764 62.9355H28.9757C28.919 62.6359 28.7841 62.3863 28.5708 62.1866C28.3603 61.9842 28.0783 61.883 27.7248 61.883C27.4252 61.883 27.162 61.9639 26.9353 62.1259C26.7086 62.2851 26.5319 62.5145 26.405 62.8141C26.2809 63.1136 26.2188 63.4726 26.2188 63.8909C26.2188 64.3146 26.2809 64.679 26.405 64.9839C26.5292 65.2862 26.7032 65.5197 26.9272 65.6843C27.1539 65.8462 27.4198 65.9272 27.7248 65.9272C27.9407 65.9272 28.1336 65.8867 28.3037 65.8058C28.4764 65.7221 28.6208 65.602 28.7368 65.4455C28.8529 65.2889 28.9325 65.0987 28.9757 64.8746H30.3764C30.3413 65.3146 30.2118 65.7045 29.9877 66.0446C29.7637 66.382 29.4588 66.6464 29.0728 66.8381C28.6869 67.027 28.2335 67.1214 27.7126 67.1214ZM31.5797 67V60.7818H33.0452V67H31.5797ZM32.3165 59.8993C32.0844 59.8993 31.8847 59.8224 31.7174 59.6685C31.5501 59.512 31.4664 59.3244 31.4664 59.1058C31.4664 58.8845 31.5501 58.6969 31.7174 58.5431C31.8847 58.3866 32.0844 58.3083 32.3165 58.3083C32.5513 58.3083 32.751 58.3866 32.9157 58.5431C33.083 58.6969 33.1667 58.8845 33.1667 59.1058C33.1667 59.3244 33.083 59.512 32.9157 59.6685C32.751 59.8224 32.5513 59.8993 32.3165 59.8993ZM37.6572 60.7818V61.9153H34.0826V60.7818H37.6572ZM34.9651 59.292H36.4306V65.1297C36.4306 65.3267 36.4603 65.4778 36.5197 65.5831C36.5817 65.6857 36.6627 65.7558 36.7626 65.7936C36.8624 65.8314 36.9731 65.8503 37.0945 65.8503C37.1863 65.8503 37.27 65.8435 37.3455 65.83C37.4238 65.8165 37.4832 65.8044 37.5236 65.7936L37.7706 66.9393C37.6923 66.9663 37.5803 66.996 37.4346 67.0283C37.2915 67.0607 37.1161 67.0796 36.9083 67.085C36.5413 67.0958 36.2107 67.0405 35.9165 66.919C35.6223 66.7949 35.3888 66.6033 35.2161 66.3442C35.0461 66.0851 34.9624 65.7612 34.9651 65.3726V59.292ZM39.7937 69.3318C39.594 69.3318 39.4091 69.3156 39.2391 69.2832C39.0718 69.2536 38.9382 69.2185 38.8383 69.178L39.1784 68.0364C39.3916 68.0984 39.5819 68.1281 39.7492 68.1254C39.9165 68.1227 40.0636 68.0701 40.1905 67.9675C40.32 67.8677 40.4293 67.7004 40.5184 67.4656L40.6439 67.1295L38.389 60.7818H39.9435L41.3766 65.4778H41.4414L42.8785 60.7818H44.4371L41.9474 67.753C41.8314 68.0822 41.6775 68.3643 41.4859 68.5991C41.2943 68.8366 41.0595 69.0174 40.7815 69.1415C40.5062 69.2684 40.177 69.3318 39.7937 69.3318ZM48.3437 58.7091H50.1817L52.643 64.7168H52.7402L55.2015 58.7091H57.0395V67H55.5983V61.304H55.5214L53.23 66.9757H52.1532L49.8618 61.2919H49.7849V67H48.3437V58.7091ZM61.363 67.1214C60.7396 67.1214 60.2012 66.9919 59.7478 66.7328C59.2971 66.471 58.9503 66.1013 58.7074 65.6236C58.4645 65.1432 58.343 64.5778 58.343 63.9273C58.343 63.2877 58.4645 62.7263 58.7074 62.2433C58.953 61.7575 59.2957 61.3796 59.7356 61.1097C60.1755 60.8371 60.6924 60.7009 61.2861 60.7009C61.6694 60.7009 62.031 60.7629 62.3711 60.8871C62.7138 61.0085 63.0161 61.1974 63.2779 61.4538C63.5424 61.7102 63.7502 62.0368 63.9013 62.4335C64.0525 62.8276 64.128 63.2972 64.128 63.8423V64.2917H59.0312V63.3039H62.7233C62.7206 63.0232 62.6599 62.7736 62.5411 62.555C62.4224 62.3337 62.2564 62.1596 62.0432 62.0327C61.8326 61.9059 61.5871 61.8425 61.3064 61.8425C61.0068 61.8425 60.7437 61.9153 60.517 62.0611C60.2902 62.2041 60.1135 62.393 59.9866 62.6278C59.8625 62.8599 59.7991 63.115 59.7964 63.393V64.2553C59.7964 64.6169 59.8625 64.9273 59.9947 65.1864C60.127 65.4428 60.3118 65.6398 60.5493 65.7774C60.7868 65.9124 61.0648 65.9798 61.3833 65.9798C61.5965 65.9798 61.7895 65.9501 61.9622 65.8908C62.1349 65.8287 62.2847 65.7383 62.4116 65.6195C62.5384 65.5008 62.6342 65.3537 62.699 65.1783L64.0673 65.3321C63.9809 65.6937 63.8163 66.0095 63.5734 66.2794C63.3332 66.5466 63.0255 66.7544 62.6504 66.9028C62.2753 67.0486 61.8461 67.1214 61.363 67.1214ZM68.1207 67.1214C67.4972 67.1214 66.9588 66.9919 66.5054 66.7328C66.0547 66.471 65.7079 66.1013 65.465 65.6236C65.2221 65.1432 65.1006 64.5778 65.1006 63.9273C65.1006 63.2877 65.2221 62.7263 65.465 62.2433C65.7106 61.7575 66.0533 61.3796 66.4932 61.1097C66.9332 60.8371 67.45 60.7009 68.0437 60.7009C68.427 60.7009 68.7886 60.7629 69.1287 60.8871C69.4714 61.0085 69.7737 61.1974 70.0355 61.4538C70.3 61.7102 70.5078 62.0368 70.6589 62.4335C70.8101 62.8276 70.8856 63.2972 70.8856 63.8423V64.2917H65.7888V63.3039H69.4809C69.4782 63.0232 69.4175 62.7736 69.2987 62.555C69.18 62.3337 69.014 62.1596 68.8008 62.0327C68.5903 61.9059 68.3447 61.8425 68.064 61.8425C67.7644 61.8425 67.5013 61.9153 67.2746 62.0611C67.0479 62.2041 66.8711 62.393 66.7442 62.6278C66.6201 62.8599 66.5567 63.115 66.554 63.393V64.2553C66.554 64.6169 66.6201 64.9273 66.7523 65.1864C66.8846 65.4428 67.0695 65.6398 67.307 65.7774C67.5445 65.9124 67.8224 65.9798 68.1409 65.9798C68.3541 65.9798 68.5471 65.9501 68.7198 65.8908C68.8925 65.8287 69.0423 65.7383 69.1692 65.6195C69.296 65.5008 69.3918 65.3537 69.4566 65.1783L70.8249 65.3321C70.7386 65.6937 70.5739 66.0095 70.331 66.2794C70.0908 66.5466 69.7832 66.7544 69.408 66.9028C69.0329 67.0486 68.6038 67.1214 68.1207 67.1214ZM75.2305 60.7818V61.9153H71.6558V60.7818H75.2305ZM72.5384 59.292H74.0039V65.1297C74.0039 65.3267 74.0335 65.4778 74.0929 65.5831C74.155 65.6857 74.236 65.7558 74.3358 65.7936C74.4357 65.8314 74.5463 65.8503 74.6678 65.8503C74.7595 65.8503 74.8432 65.8435 74.9188 65.83C74.997 65.8165 75.0564 65.8044 75.0969 65.7936L75.3438 66.9393C75.2656 66.9663 75.1536 66.996 75.0078 67.0283C74.8648 67.0607 74.6894 67.0796 74.4816 67.085C74.1145 67.0958 73.7839 67.0405 73.4897 66.919C73.1955 66.7949 72.9621 66.6033 72.7894 66.3442C72.6193 66.0851 72.5357 65.7612 72.5384 65.3726V59.292ZM81.2817 62.4254L79.9457 62.5712C79.908 62.4362 79.8418 62.3094 79.7474 62.1906C79.6556 62.0719 79.5315 61.9761 79.3749 61.9032C79.2184 61.8303 79.0268 61.7939 78.8001 61.7939C78.4951 61.7939 78.2387 61.86 78.0309 61.9923C77.8258 62.1245 77.7246 62.2959 77.7273 62.5064C77.7246 62.6872 77.7907 62.8343 77.9256 62.9477C78.0633 63.061 78.29 63.1541 78.6057 63.227L79.6664 63.4537C80.2548 63.5805 80.692 63.7816 80.9781 64.0569C81.2668 64.3322 81.4126 64.6925 81.4153 65.1378C81.4126 65.5291 81.2979 65.8746 81.0712 66.1741C80.8472 66.471 80.5354 66.7031 80.136 66.8705C79.7366 67.0378 79.2778 67.1214 78.7596 67.1214C77.9985 67.1214 77.3859 66.9622 76.9217 66.6438C76.4575 66.3226 76.1808 65.8759 76.0918 65.3038L77.5208 65.1661C77.5856 65.4468 77.7232 65.6587 77.9337 65.8017C78.1442 65.9447 78.4182 66.0163 78.7555 66.0163C79.1037 66.0163 79.383 65.9447 79.5935 65.8017C79.8067 65.6587 79.9133 65.4819 79.9133 65.2714C79.9133 65.0933 79.8445 64.9462 79.7069 64.8301C79.5719 64.7141 79.3614 64.625 79.0754 64.5629L78.0147 64.3403C77.4182 64.2161 76.977 64.007 76.6909 63.7128C76.4048 63.4159 76.2631 63.0408 76.2658 62.5874C76.2631 62.2041 76.367 61.8722 76.5776 61.5915C76.7908 61.3081 77.0863 61.0895 77.4641 60.9357C77.8447 60.7791 78.2832 60.7009 78.7798 60.7009C79.5085 60.7009 80.082 60.856 80.5004 61.1664C80.9214 61.4768 81.1818 61.8964 81.2817 62.4254ZM85.5162 67V58.7091H88.6253C89.2622 58.7091 89.7966 58.8278 90.2284 59.0653C90.6629 59.3028 90.9908 59.6294 91.2121 60.045C91.4361 60.458 91.5481 60.9276 91.5481 61.4538C91.5481 61.9855 91.4361 62.4578 91.2121 62.8707C90.9881 63.2837 90.6575 63.6089 90.2203 63.8464C89.7831 64.0812 89.2447 64.1986 88.605 64.1986H86.5445V62.9638H88.4026C88.7751 62.9638 89.08 62.8991 89.3175 62.7695C89.555 62.64 89.7305 62.4619 89.8438 62.2352C89.9599 62.0085 90.0179 61.748 90.0179 61.4538C90.0179 61.1597 89.9599 60.9006 89.8438 60.6766C89.7305 60.4526 89.5537 60.2785 89.3135 60.1543C89.076 60.0275 88.7697 59.9641 88.3945 59.9641H87.0181V67H85.5162ZM95.4517 67.1214C94.8283 67.1214 94.2899 66.9919 93.8364 66.7328C93.3857 66.471 93.0389 66.1013 92.796 65.6236C92.5531 65.1432 92.4317 64.5778 92.4317 63.9273C92.4317 63.2877 92.5531 62.7263 92.796 62.2433C93.0416 61.7575 93.3844 61.3796 93.8243 61.1097C94.2642 60.8371 94.781 60.7009 95.3748 60.7009C95.758 60.7009 96.1197 60.7629 96.4597 60.8871C96.8025 61.0085 97.1048 61.1974 97.3666 61.4538C97.631 61.7102 97.8389 62.0368 97.99 62.4335C98.1411 62.8276 98.2167 63.2972 98.2167 63.8423V64.2917H93.1199V63.3039H96.8119C96.8092 63.0232 96.7485 62.7736 96.6298 62.555C96.511 62.3337 96.345 62.1596 96.1318 62.0327C95.9213 61.9059 95.6757 61.8425 95.395 61.8425C95.0955 61.8425 94.8323 61.9153 94.6056 62.0611C94.3789 62.2041 94.2021 62.393 94.0753 62.6278C93.9511 62.8599 93.8877 63.115 93.885 63.393V64.2553C93.885 64.6169 93.9511 64.9273 94.0834 65.1864C94.2156 65.4428 94.4005 65.6398 94.638 65.7774C94.8755 65.9124 95.1535 65.9798 95.472 65.9798C95.6852 65.9798 95.8781 65.9501 96.0509 65.8908C96.2236 65.8287 96.3734 65.7383 96.5002 65.6195C96.6271 65.5008 96.7229 65.3537 96.7877 65.1783L98.156 65.3321C98.0696 65.6937 97.905 66.0095 97.6621 66.2794C97.4219 66.5466 97.1142 66.7544 96.7391 66.9028C96.3639 67.0486 95.9348 67.1214 95.4517 67.1214ZM99.4565 67V60.7818H100.877V61.8182H100.942C101.056 61.4592 101.25 61.1826 101.525 60.9883C101.803 60.7913 102.12 60.6928 102.477 60.6928C102.557 60.6928 102.648 60.6968 102.748 60.7049C102.85 60.7103 102.935 60.7197 103.003 60.7332V62.0813C102.941 62.0597 102.842 62.0408 102.707 62.0246C102.575 62.0058 102.447 61.9963 102.323 61.9963C102.056 61.9963 101.815 62.0543 101.602 62.1704C101.392 62.2837 101.226 62.4416 101.104 62.644C100.983 62.8464 100.922 63.0799 100.922 63.3444V67H99.4565ZM107.46 60.7818V61.9153H103.784V60.7818H107.46ZM104.703 67V60.1948C104.703 59.7765 104.789 59.4283 104.962 59.1504C105.138 58.8724 105.372 58.6646 105.667 58.5269C105.961 58.3893 106.287 58.3205 106.646 58.3205C106.9 58.3205 107.125 58.3407 107.322 58.3812C107.519 58.4217 107.665 58.4581 107.76 58.4905L107.468 59.624C107.406 59.6051 107.328 59.5862 107.233 59.5673C107.139 59.5457 107.034 59.5349 106.918 59.5349C106.645 59.5349 106.452 59.6011 106.339 59.7333C106.228 59.8629 106.173 60.0491 106.173 60.292V67H104.703ZM111.127 67.1214C110.503 67.1214 109.965 66.9919 109.511 66.7328C109.061 66.471 108.714 66.1013 108.471 65.6236C108.228 65.1432 108.107 64.5778 108.107 63.9273C108.107 63.2877 108.228 62.7263 108.471 62.2433C108.717 61.7575 109.059 61.3796 109.499 61.1097C109.939 60.8371 110.456 60.7009 111.05 60.7009C111.433 60.7009 111.795 60.7629 112.135 60.8871C112.478 61.0085 112.78 61.1974 113.042 61.4538C113.306 61.7102 113.514 62.0368 113.665 62.4335C113.816 62.8276 113.892 63.2972 113.892 63.8423V64.2917H108.795V63.3039H112.487C112.484 63.0232 112.424 62.7736 112.305 62.555C112.186 62.3337 112.02 62.1596 111.807 62.0327C111.596 61.9059 111.351 61.8425 111.07 61.8425C110.77 61.8425 110.507 61.9153 110.281 62.0611C110.054 62.2041 109.877 62.393 109.75 62.6278C109.626 62.8599 109.563 63.115 109.56 63.393V64.2553C109.56 64.6169 109.626 64.9273 109.758 65.1864C109.891 65.4428 110.076 65.6398 110.313 65.7774C110.551 65.9124 110.828 65.9798 111.147 65.9798C111.36 65.9798 111.553 65.9501 111.726 65.8908C111.899 65.8287 112.048 65.7383 112.175 65.6195C112.302 65.5008 112.398 65.3537 112.463 65.1783L113.831 65.3321C113.745 65.6937 113.58 66.0095 113.337 66.2794C113.097 66.5466 112.789 66.7544 112.414 66.9028C112.039 67.0486 111.61 67.1214 111.127 67.1214ZM117.844 67.1214C117.223 67.1214 116.69 66.9852 116.245 66.7126C115.802 66.44 115.461 66.0635 115.221 65.5831C114.983 65.1 114.864 64.544 114.864 63.9152C114.864 63.2837 114.986 62.7263 115.229 62.2433C115.472 61.7575 115.814 61.3796 116.257 61.1097C116.702 60.8371 117.229 60.7009 117.836 60.7009C118.34 60.7009 118.787 60.794 119.176 60.9802C119.567 61.1637 119.879 61.4241 120.111 61.7615C120.343 62.0962 120.475 62.4875 120.508 62.9355H119.107C119.05 62.6359 118.915 62.3863 118.702 62.1866C118.492 61.9842 118.21 61.883 117.856 61.883C117.556 61.883 117.293 61.9639 117.067 62.1259C116.84 62.2851 116.663 62.5145 116.536 62.8141C116.412 63.1136 116.35 63.4726 116.35 63.8909C116.35 64.3146 116.412 64.679 116.536 64.9839C116.66 65.2862 116.834 65.5197 117.058 65.6843C117.285 65.8462 117.551 65.9272 117.856 65.9272C118.072 65.9272 118.265 65.8867 118.435 65.8058C118.608 65.7221 118.752 65.602 118.868 65.4455C118.984 65.2889 119.064 65.0987 119.107 64.8746H120.508C120.473 65.3146 120.343 65.7045 120.119 66.0446C119.895 66.382 119.59 66.6464 119.204 66.8381C118.818 67.027 118.365 67.1214 117.844 67.1214ZM124.816 60.7818V61.9153H121.241V60.7818H124.816ZM122.124 59.292H123.589V65.1297C123.589 65.3267 123.619 65.4778 123.678 65.5831C123.741 65.6857 123.822 65.7558 123.921 65.7936C124.021 65.8314 124.132 65.8503 124.253 65.8503C124.345 65.8503 124.429 65.8435 124.504 65.83C124.583 65.8165 124.642 65.8044 124.682 65.7936L124.929 66.9393C124.851 66.9663 124.739 66.996 124.593 67.0283C124.45 67.0607 124.275 67.0796 124.067 67.085C123.7 67.0958 123.369 67.0405 123.075 66.919C122.781 66.7949 122.548 66.6033 122.375 66.3442C122.205 66.0851 122.121 65.7612 122.124 65.3726V59.292ZM126.042 67V60.7818H127.507V67H126.042ZM126.778 59.8993C126.546 59.8993 126.347 59.8224 126.179 59.6685C126.012 59.512 125.928 59.3244 125.928 59.1058C125.928 58.8845 126.012 58.6969 126.179 58.5431C126.347 58.3866 126.546 58.3083 126.778 58.3083C127.013 58.3083 127.213 58.3866 127.378 58.5431C127.545 58.6969 127.629 58.8845 127.629 59.1058C127.629 59.3244 127.545 59.512 127.378 59.6685C127.213 59.8224 127.013 59.8993 126.778 59.8993ZM131.726 67.1214C131.119 67.1214 130.593 66.9879 130.148 66.7207C129.702 66.4535 129.357 66.0797 129.111 65.5993C128.868 65.1189 128.747 64.5575 128.747 63.9152C128.747 63.2729 128.868 62.7102 129.111 62.2271C129.357 61.744 129.702 61.3688 130.148 61.1016C130.593 60.8344 131.119 60.7009 131.726 60.7009C132.334 60.7009 132.86 60.8344 133.305 61.1016C133.751 61.3688 134.095 61.744 134.338 62.2271C134.583 62.7102 134.706 63.2729 134.706 63.9152C134.706 64.5575 134.583 65.1189 134.338 65.5993C134.095 66.0797 133.751 66.4535 133.305 66.7207C132.86 66.9879 132.334 67.1214 131.726 67.1214ZM131.735 65.9474C132.064 65.9474 132.339 65.857 132.56 65.6762C132.782 65.4927 132.946 65.2471 133.054 64.9394C133.165 64.6317 133.22 64.289 133.22 63.9112C133.22 63.5306 133.165 63.1865 133.054 62.8788C132.946 62.5685 132.782 62.3215 132.56 62.138C132.339 61.9545 132.064 61.8627 131.735 61.8627C131.397 61.8627 131.117 61.9545 130.893 62.138C130.671 62.3215 130.505 62.5685 130.395 62.8788C130.287 63.1865 130.233 63.5306 130.233 63.9112C130.233 64.289 130.287 64.6317 130.395 64.9394C130.505 65.2471 130.671 65.4927 130.893 65.6762C131.117 65.857 131.397 65.9474 131.735 65.9474ZM137.415 63.3565V67H135.95V60.7818H137.351V61.8384H137.423C137.566 61.4903 137.795 61.2136 138.108 61.0085C138.423 60.8034 138.813 60.7009 139.278 60.7009C139.707 60.7009 140.08 60.7926 140.399 60.9761C140.72 61.1597 140.968 61.4255 141.144 61.7737C141.322 62.1218 141.41 62.5442 141.407 63.0408V67H139.941V63.2675C139.941 62.8518 139.834 62.5266 139.618 62.2918C139.404 62.057 139.109 61.9396 138.731 61.9396C138.475 61.9396 138.247 61.9963 138.047 62.1097C137.85 62.2203 137.695 62.3809 137.581 62.5914C137.471 62.8019 137.415 63.057 137.415 63.3565Z" fill="#FAFAFA"/>
<defs>
<linearGradient id="paint0_linear_7405_10492" x1="17.9528" y1="20.4853" x2="32.7319" y2="3.6133" gradientUnits="userSpaceOnUse">
<stop stop-color="#7D2EBD"/>
<stop offset="1" stop-color="#C054EE"/>
</linearGradient>
<linearGradient id="paint1_linear_7405_10492" x1="31.8384" y1="44.4853" x2="46.6175" y2="27.6133" gradientUnits="userSpaceOnUse">
<stop stop-color="#7D2EBD"/>
<stop offset="1" stop-color="#C054EE"/>
</linearGradient>
<linearGradient id="paint2_linear_7405_10492" x1="4.06703" y1="44.4853" x2="18.8461" y2="27.6133" gradientUnits="userSpaceOnUse">
<stop stop-color="#7D2EBD"/>
<stop offset="1" stop-color="#C054EE"/>
</linearGradient>
</defs>
</svg>
