<svg width="32" height="32" viewBox="0 0 32 32" fill="none" xmlns="http://www.w3.org/2000/svg">
<path d="M16.0013 20C18.2104 20 20.0013 18.2092 20.0013 16C20.0013 13.7909 18.2104 12 16.0013 12C13.7922 12 12.0013 13.7909 12.0013 16C12.0013 18.2092 13.7922 20 16.0013 20Z" stroke="#3E70F1" stroke-width="2.67" stroke-linecap="round" stroke-linejoin="round"/>
<path d="M12.3867 25.8282L13.166 27.5808C13.3977 28.1025 13.7757 28.5457 14.2543 28.8568C14.7329 29.1679 15.2915 29.3334 15.8623 29.3334C16.4331 29.3334 16.9917 29.1679 17.4703 28.8568C17.9489 28.5457 18.3269 28.1025 18.5586 27.5808L19.3379 25.8282C19.6153 25.2063 20.0819 24.6878 20.6712 24.3467C21.2642 24.0046 21.9503 23.8589 22.6312 23.9304L24.5379 24.1334C25.1054 24.1934 25.6782 24.0875 26.1868 23.8285C26.6953 23.5694 27.1178 23.1684 27.403 22.6741C27.6886 22.18 27.8247 21.6137 27.7947 21.0439C27.7647 20.474 27.57 19.9251 27.2342 19.4637L26.1053 17.9126C25.7033 17.3562 25.4885 16.6864 25.4919 16C25.4918 15.3155 25.7086 14.6485 26.1112 14.0948L27.2401 12.5437C27.5759 12.0824 27.7706 11.5334 27.8006 10.9636C27.8306 10.3937 27.6945 9.82741 27.409 9.33335C27.1238 8.839 26.7013 8.43801 26.1927 8.17899C25.6841 7.91997 25.1113 7.81406 24.5438 7.87409L22.6371 8.07706C21.9562 8.14857 21.2702 8.00285 20.6771 7.66076C20.0866 7.31769 19.6199 6.7965 19.3438 6.17187L18.5586 4.41928C18.3269 3.89758 17.9489 3.45431 17.4703 3.14322C16.9917 2.83213 16.4331 2.66659 15.8623 2.66669C15.2915 2.66659 14.7329 2.83213 14.2543 3.14322C13.7757 3.45431 13.3977 3.89758 13.166 4.41928L12.3867 6.17187C12.1107 6.7965 11.6439 7.31769 11.0534 7.66076C10.4604 8.00285 9.77431 8.14857 9.09342 8.07706L7.18082 7.87409C6.61326 7.81406 6.04048 7.91997 5.53191 8.17899C5.02334 8.43801 4.60084 8.839 4.31564 9.33335C4.03007 9.82741 3.89402 10.3937 3.92399 10.9636C3.95397 11.5334 4.14869 12.0824 4.48453 12.5437L5.61341 14.0948C6.016 14.6485 6.2328 15.3155 6.23267 16C6.2328 16.6846 6.016 17.3516 5.61341 17.9052L4.48453 19.4563C4.14869 19.9177 3.95397 20.4666 3.92399 21.0365C3.89402 21.6063 4.03007 22.1726 4.31564 22.6667C4.60113 23.1608 5.02368 23.5616 5.53217 23.8205C6.04066 24.0795 6.61331 24.1856 7.18082 24.1259L9.08749 23.923C9.76838 23.8515 10.4544 23.9972 11.0475 24.3393C11.6402 24.6814 12.1091 25.2027 12.3867 25.8282Z" stroke="#3E70F1" stroke-width="2.67" stroke-linecap="round" stroke-linejoin="round"/>
</svg>
