<svg width="28" height="28" viewBox="0 0 28 28" fill="none" xmlns="http://www.w3.org/2000/svg">
<path d="M19.3334 8.66667C19.3334 10.0812 18.7715 11.4377 17.7713 12.4379C16.7711 13.4381 15.4146 14 14.0001 14C12.5856 14 11.2291 13.4381 10.2289 12.4379C9.22867 11.4377 8.66677 10.0812 8.66677 8.66667M2.84439 7.86851L1.91106 19.0685C1.71056 21.4745 1.61031 22.6776 2.01701 23.6056C2.37435 24.4209 2.99347 25.0938 3.77635 25.5176C4.6674 26 5.87458 26 8.28895 26H19.7113C22.1256 26 23.3328 26 24.2239 25.5176C25.0067 25.0938 25.6259 24.4209 25.9832 23.6056C26.3899 22.6776 26.2896 21.4745 26.0891 19.0685L25.1558 7.86851C24.9833 5.79833 24.897 4.76325 24.4386 3.97981C24.0349 3.28992 23.4338 2.7368 22.7127 2.39179C21.8939 2 20.8553 2 18.7779 2L9.22229 2C7.14493 2 6.10626 2 5.28746 2.39179C4.56643 2.7368 3.9653 3.28992 3.5616 3.97981C3.10317 4.76324 3.01691 5.79833 2.84439 7.86851Z" stroke="#FB7B05" stroke-width="2.67" stroke-linecap="round" stroke-linejoin="round"/>
</svg>
