<svg width="119" height="40" viewBox="0 0 119 40" fill="none" xmlns="http://www.w3.org/2000/svg">
<path d="M27.4936 8.31411V0H18.7919V8.31411L11.5713 12.4712L15.9221 20L23.1427 15.843L30.3633 20L34.7141 12.4712L27.4936 8.31411Z" fill="url(#paint0_linear_202_4817)"/>
<path d="M39.0649 28.3141V20H30.3631V28.3141L23.1426 32.4712L27.4934 40L34.714 35.843L41.9346 40L46.2854 32.4712L39.0649 28.3141Z" fill="url(#paint1_linear_202_4817)"/>
<path d="M15.9223 20H7.22057V28.3141L0 32.4712L4.35085 40L11.5714 35.843L18.792 40L23.1428 32.4712L15.9223 28.3141V20Z" fill="url(#paint2_linear_202_4817)"/>
<path d="M76.0122 11.2361H68.2584L63.4348 26.907L58.6112 11.2361H50.8574L59.8284 36.3729H66.9961L76.0122 11.2361Z" fill="url(#paint3_linear_202_4817)"/>
<path d="M79.4742 8.56391H86.9575V2.85718H79.4742V8.56391ZM79.4742 36.3729H86.9575V11.2361H79.4742V36.3729Z" fill="url(#paint4_linear_202_4817)"/>
<path d="M91.201 23.7819C91.201 29.9415 95.5738 37.1429 104.68 37.1429C113.786 37.1429 118.159 29.9415 118.159 23.7819C118.159 17.6222 113.786 10.4209 104.68 10.4209C95.5738 10.4209 91.201 17.6222 91.201 23.7366V23.7819ZM98.6844 23.7819C98.6844 20.1133 101.434 17.4411 104.68 17.4411C107.926 17.4411 110.676 20.1133 110.676 23.7819C110.676 27.4505 107.926 30.1227 104.68 30.1227C101.434 30.1227 98.6844 27.4505 98.6844 23.8272V23.7819Z" fill="url(#paint5_linear_202_4817)"/>
<defs>
<linearGradient id="paint0_linear_202_4817" x1="14.9605" y1="17.0711" x2="27.2764" y2="3.01108" gradientUnits="userSpaceOnUse">
<stop stop-color="#7D2EBD"/>
<stop offset="1" stop-color="#C054EE"/>
</linearGradient>
<linearGradient id="paint1_linear_202_4817" x1="26.5318" y1="37.0711" x2="38.8477" y2="23.0111" gradientUnits="userSpaceOnUse">
<stop stop-color="#7D2EBD"/>
<stop offset="1" stop-color="#C054EE"/>
</linearGradient>
<linearGradient id="paint2_linear_202_4817" x1="3.38919" y1="37.0711" x2="15.7051" y2="23.0111" gradientUnits="userSpaceOnUse">
<stop stop-color="#7D2EBD"/>
<stop offset="1" stop-color="#C054EE"/>
</linearGradient>
<linearGradient id="paint3_linear_202_4817" x1="60.7135" y1="32.1219" x2="78.0788" y2="-1.50814" gradientUnits="userSpaceOnUse">
<stop stop-color="#7D2EBD"/>
<stop offset="1" stop-color="#C054EE"/>
</linearGradient>
<linearGradient id="paint4_linear_202_4817" x1="60.7135" y1="32.1219" x2="78.0788" y2="-1.50814" gradientUnits="userSpaceOnUse">
<stop stop-color="#7D2EBD"/>
<stop offset="1" stop-color="#C054EE"/>
</linearGradient>
<linearGradient id="paint5_linear_202_4817" x1="60.7135" y1="32.1219" x2="78.0788" y2="-1.50814" gradientUnits="userSpaceOnUse">
<stop stop-color="#7D2EBD"/>
<stop offset="1" stop-color="#C054EE"/>
</linearGradient>
</defs>
</svg>
