<svg width="47" height="40" viewBox="0 0 47 40" fill="none" xmlns="http://www.w3.org/2000/svg">
<path d="M27.4926 8.31411V0H18.7909V8.31411L11.5703 12.4712L15.9212 20L23.1417 15.843L30.3623 20L34.7132 12.4712L27.4926 8.31411Z" fill="url(#paint0_linear_6998_916)"/>
<path d="M39.0649 28.3141V20H30.3631V28.3141L23.1426 32.4712L27.4934 40L34.714 35.843L41.9346 40L46.2854 32.4712L39.0649 28.3141Z" fill="url(#paint1_linear_6998_916)"/>
<path d="M15.9223 20H7.22057V28.3141L0 32.4712L4.35085 40L11.5714 35.843L18.792 40L23.1428 32.4712L15.9223 28.3141V20Z" fill="url(#paint2_linear_6998_916)"/>
<defs>
<linearGradient id="paint0_linear_6998_916" x1="14.9595" y1="17.0711" x2="27.2754" y2="3.01108" gradientUnits="userSpaceOnUse">
<stop stop-color="#7D2EBD"/>
<stop offset="1" stop-color="#C054EE"/>
</linearGradient>
<linearGradient id="paint1_linear_6998_916" x1="26.5318" y1="37.0711" x2="38.8477" y2="23.0111" gradientUnits="userSpaceOnUse">
<stop stop-color="#7D2EBD"/>
<stop offset="1" stop-color="#C054EE"/>
</linearGradient>
<linearGradient id="paint2_linear_6998_916" x1="3.38919" y1="37.0711" x2="15.7051" y2="23.0111" gradientUnits="userSpaceOnUse">
<stop stop-color="#7D2EBD"/>
<stop offset="1" stop-color="#C054EE"/>
</linearGradient>
</defs>
</svg>
