<svg width="233" height="217" viewBox="0 0 233 217" fill="none" xmlns="http://www.w3.org/2000/svg">
<path d="M0.245325 217.061C1.13789 214.363 1.77823 211.431 2.91527 208.725C20.8516 172.719 42.0281 138.55 67.706 107.393C71.9513 102.404 76.6857 97.3984 81.6954 93.3551C90.287 86.5277 98.4554 89.4213 100.279 100.527C102.087 111.147 102.681 122.049 104.008 132.927C104.667 138.245 105.09 143.813 111.341 147.982C114.434 145.213 118.031 142.914 120.872 139.911C126.774 133.17 132.677 126.428 137.822 118.983C157.718 90.6802 177.606 62.135 198.426 32.1039C184.095 35.4746 176.217 49.3171 162.504 49.0278C161.992 48.3161 161.479 47.6044 160.959 46.6503C162.845 44.4058 164.227 41.6921 166.625 40.1592C183.373 28.2171 200.366 16.2672 217.359 4.31731C220.949 1.77561 225.508 -1.03982 229.055 2.72969C231.333 5.08368 232.45 9.41628 232.567 13.0528C232.617 22.2733 231.942 31.7597 231.503 40.9958C231.336 43.428 231.414 45.8524 230.498 47.8232C229.345 50.0442 227.184 51.3268 225.282 53.0864C223.509 51.2017 220.521 49.5985 220.215 47.6668C219.082 42.8493 219.163 37.7503 219 32.6591C218.946 30.962 218.639 29.0303 218.492 24.424C211.957 34.3405 206.575 42.036 201.437 49.7237C184.382 75.0233 167.571 100.315 150.263 125.38C144.407 133.576 137.803 141.311 130.946 148.811C127.876 152.307 124.05 155.098 119.971 157.656C110.844 163.044 101.721 160.909 97.2551 151.345C93.8288 143.688 92.0905 135.25 90.3522 126.812C88.9127 120.062 88.9399 113.266 87.8963 103.592C82.6885 109.098 79.1223 112.367 75.8161 116.113C54.8027 140.083 37.2818 166.126 20.5253 193.115C16.3342 199.801 12.1354 206.245 7.69208 212.697C6.05059 214.934 3.65241 216.467 1.51422 218.477C1.49871 217.992 0.749781 217.531 0.245325 217.061Z" fill="#12B76A"/>
</svg>
