<svg width="40" height="40" viewBox="0 0 40 40" fill="none" xmlns="http://www.w3.org/2000/svg">
<path d="M26.6663 13.3333C26.6663 15.1014 25.9639 16.7971 24.7137 18.0474C23.4634 19.2976 21.7677 20 19.9996 20C18.2315 20 16.5358 19.2976 15.2856 18.0474C14.0354 16.7971 13.333 15.1014 13.333 13.3333M6.055 12.3356L4.88834 26.3356C4.63771 29.3432 4.51239 30.8469 5.02078 32.007C5.46745 33.0262 6.24135 33.8673 7.21995 34.397C8.33376 35 9.84274 35 12.8607 35H27.1386C30.1565 35 31.6655 35 32.7793 34.397C33.7579 33.8673 34.5318 33.0262 34.9785 32.007C35.4869 30.8469 35.3616 29.3432 35.1109 26.3356L33.9443 12.3356C33.7286 9.74792 33.6208 8.45406 33.0478 7.47476C32.5431 6.6124 31.7917 5.921 30.8904 5.48974C29.8669 5 28.5686 5 25.9719 5L14.0274 5C11.4307 5 10.1323 5 9.10883 5.48974C8.20755 5.921 7.45614 6.6124 6.95152 7.47476C6.37847 8.45405 6.27065 9.74792 6.055 12.3356Z" stroke="#FAFAFA" stroke-width="4" stroke-linecap="round" stroke-linejoin="round"/>
</svg>
